#!OML:ASF X:\für Bonn\!DataBase\2005_08_12_Daniel\c3d\Daniel.ASF
:FULLY-SPECIFIED
:DEGREES
46
root 15.2456 15.6335 14.0363 708.097 -131.25 -2.39517
lowerback 38.8348 4.45053 -0.70507
upperback 10.2448 2.21314 -5.46292
thorax -7.43477 0.14631 -6.19674
lowerneck -4.26547 0.312545 -4.25792
upperneck 5.02038 0.681343 -0.275252
head 2.3056 0.236018 0.66474
rclavicle 2.06736e-014 1.25632e-013
rhumerus -36.0853 -5.6887 -81.8508
rradius 75.6197
rwrist 13.4838
rhand -33.829 8.01245
rfingers 7.12502
rthumb -7.01451 -21.8513
lclavicle 2.06736e-014 1.25632e-013
lhumerus 140.777 150.261 244.174
lradius 75.2379
lwrist -27.1997
lhand -28.7571 6.49645
lfingers 7.12502
lthumb -2.11711 36.4657
rfemur 9.47934 -3.79248 21.2392
rtibia 54.7437
rfoot -33.7823 5.26679
rtoes -6.83359
lfemur -34.0782 -5.93405 -20.0379
ltibia 40.9877
lfoot -8.90116 -1.50361
ltoes -10.9416
47
root 15.1395 15.6291 13.9574 708.436 -131.088 -2.559
lowerback 39.0192 4.5323 -0.846944
upperback 10.2106 2.23684 -5.51994
thorax -7.53369 0.154618 -6.19901
lowerneck -4.72412 0.234958 -4.25007
upperneck 4.98528 0.604948 -0.314036
head 2.38 0.197733 0.651257
rclavicle 7.95139e-015 9.54166e-015
rhumerus -36.2456 -5.86895 -81.8291
rradius 75.7677
rwrist 13.5507
rhand -33.8793 7.81591
rfingers 7.12502
rthumb -7.0631 -22.0462
lclavicle 7.95139e-015 9.54166e-015
lhumerus 140.791 150.21 244.272
lradius 75.1784
lwrist -27.2512
lhand -28.9699 6.57064
lfingers 7.12502
lthumb -2.32263 36.5377
rfemur 9.8987 -3.79628 21.1131
rtibia 54.4908
rfoot -33.6542 5.04318
rtoes -7.19459
lfemur -34.5078 -5.40915 -20.4013
ltibia 41.9122
lfoot -8.4216 -2.06945
ltoes -11.0845
48
root 15.0333 15.6238 13.8765 708.752 -130.919 -2.66304
lowerback 39.2278 4.61822 -0.959031
upperback 10.1651 2.28004 -5.55499
thorax -7.65033 0.172724 -6.20216
lowerneck -5.27412 0.146499 -4.24753
upperneck 4.98846 0.520016 -0.367072
head 2.48464 0.153453 0.63416
rclavicle -1.27222e-014 9.06458e-014
rhumerus -36.4607 -6.08257 -81.7533
rradius 75.9809
rwrist 13.5463
rhand -33.7294 7.76866
rfingers 7.12502
rthumb -6.91837 -22.0983
lclavicle -1.27222e-014 9.06458e-014
lhumerus 140.814 150.122 244.404
lradius 75.1358
lwrist -27.321
lhand -29.1175 6.3557
lfingers 7.12502
lthumb -2.46519 36.3212
rfemur 10.2952 -3.80109 21.061
rtibia 54.2346
rfoot -33.5595 4.7992
rtoes -7.52312
lfemur -34.97 -4.8165 -20.7323
ltibia 42.8589
lfoot -8.01301 -2.70576
ltoes -11.2273
49
root 14.9248 15.6196 13.7975 709.153 -130.73 -2.82908
lowerback 39.4196 4.68172 -1.14932
upperback 10.0977 2.27263 -5.56931
thorax -7.79295 0.168069 -6.12246
lowerneck -5.80178 0.0980925 -4.41535
upperneck 4.99709 0.496259 -0.346073
head 2.58672 0.138008 0.672281
rclavicle 8.34896e-014 3.49861e-014
rhumerus -36.6466 -6.11048 -81.6737
rradius 76.1296
rwrist 13.4706
rhand -33.7864 7.60273
rfingers 7.12502
rthumb -6.97338 -22.2624
lclavicle 8.34896e-014 3.49861e-014
lhumerus 140.726 149.994 244.5
lradius 75.0976
lwrist -27.4172
lhand -29.3708 6.22779
lfingers 7.12502
lthumb -2.70984 36.1903
rfemur 10.6569 -3.81674 20.947
rtibia 53.9753
rfoot -33.373 4.56811
rtoes -7.56752
lfemur -35.4779 -4.27671 -21.1233
ltibia 43.8129
lfoot -7.63606 -3.25074
ltoes -11.2645
50
root 14.8154 15.6146 13.7155 709.542 -130.582 -2.9993
lowerback 39.6138 4.79022 -1.33975
upperback 10.0365 2.31743 -5.58186
thorax -7.92403 0.187304 -6.06159
lowerneck -6.18405 0.0252777 -4.57609
upperneck 4.9539 0.43102 -0.309472
head 2.64573 0.103745 0.71147
rclavicle -2.14687e-014 4.92986e-014
rhumerus -36.8759 -6.20114 -81.5946
rradius 76.3489
rwrist 13.4201
rhand -33.7498 7.40992
rfingers 7.12502
rthumb -6.93807 -22.4564
lclavicle -2.14687e-014 4.92986e-014
lhumerus 140.716 149.825 244.628
lradius 75.0558
lwrist -27.6501
lhand -29.509 6.10234
lfingers 7.12502
lthumb -2.84333 36.0631
rfemur 11.041 -3.80643 20.8432
rtibia 53.7151
rfoot -33.2576 4.30879
rtoes -8.03802
lfemur -35.9516 -3.81707 -21.4779
ltibia 44.7846
lfoot -7.30728 -3.70888
ltoes -11.0363
51
root 14.7052 15.6078 13.635 709.977 -130.383 -3.20745
lowerback 39.8026 4.87284 -1.53397
upperback 9.98691 2.32902 -5.58794
thorax -8.04352 0.191292 -5.97838
lowerneck -6.68277 -0.0495292 -4.79482
upperneck 4.95626 0.37699 -0.282258
head 2.74238 0.0721324 0.75909
rclavicle -7.95139e-016 -1.59028e-015
rhumerus -37.0688 -6.2778 -81.5049
rradius 76.4811
rwrist 13.4402
rhand -33.7838 7.23232
rfingers 7.12502
rthumb -6.97087 -22.6329
lclavicle -7.95139e-016 -1.59028e-015
lhumerus 140.712 149.625 244.807
lradius 74.992
lwrist -27.8631
lhand -29.8074 5.86406
lfingers 7.12502
lthumb -3.13144 35.8208
rfemur 11.3885 -3.8457 20.7083
rtibia 53.4627
rfoot -33.0724 3.9968
rtoes -8.40277
lfemur -36.4498 -3.39404 -21.8754
ltibia 45.7459
lfoot -7.06596 -4.12098
ltoes -10.8531
52
root 14.5946 15.601 13.5547 710.376 -130.218 -3.37643
lowerback 40.0274 4.94355 -1.68034
upperback 9.91512 2.33636 -5.63204
thorax -8.19754 0.193966 -5.96176
lowerneck -7.18013 -0.114022 -4.84706
upperneck 4.94247 0.324999 -0.287734
head 2.83318 0.0442537 0.766882
rclavicle -5.56597e-014 3.33958e-014
rhumerus -37.3 -6.31245 -81.4859
rradius 76.627
rwrist 13.4462
rhand -33.9106 6.9763
rfingers 7.12502
rthumb -7.0933 -22.8848
lclavicle -5.56597e-014 3.33958e-014
lhumerus 140.731 149.589 244.846
lradius 74.9283
lwrist -27.925
lhand -29.8928 5.76377
lfingers 7.12502
lthumb -3.21393 35.7193
rfemur 11.7238 -3.86151 20.5898
rtibia 53.2728
rfoot -32.8882 3.82403
rtoes -8.56195
lfemur -36.9489 -2.9757 -22.2322
ltibia 46.76
lfoot -6.9024 -4.50662
ltoes -10.7077
53
root 14.482 15.5998 13.472 710.868 -130.058 -3.61402
lowerback 40.1478 5.03659 -1.8929
upperback 9.86777 2.35474 -5.65859
thorax -8.29168 0.20281 -5.89247
lowerneck -7.64198 -0.171002 -4.90172
upperneck 4.91813 0.285767 -0.380359
head 2.91354 0.0189666 0.746759
rclavicle 3.02153e-014 -1.1609e-013
rhumerus -37.4862 -6.3435 -81.4034
rradius 76.7481
rwrist 13.4968
rhand -33.9811 6.74266
rfingers 7.12502
rthumb -7.16133 -23.1162
lclavicle 3.02153e-014 -1.1609e-013
lhumerus 140.746 149.458 244.925
lradius 74.8754
lwrist -28.0668
lhand -30.0411 5.58695
lfingers 7.12502
lthumb -3.35715 35.5403
rfemur 11.9996 -3.8819 20.4278
rtibia 53.095
rfoot -32.641 3.53163
rtoes -8.83387
lfemur -37.4338 -2.61077 -22.6241
ltibia 47.7291
lfoot -6.81369 -4.83405
ltoes -10.6815
